<svg width="33" height="33" viewBox="0 0 33 33" fill="none" xmlns="http://www.w3.org/2000/svg">
<rect width="33" height="33" rx="16.5" fill="black"/>
<path fill-rule="evenodd" clip-rule="evenodd" d="M19.25 10.25C19.25 9.14543 18.3546 8.25 17.25 8.25H15.75C14.6454 8.25 13.75 9.14543 13.75 10.25V11.75C13.75 12.8546 12.8546 13.75 11.75 13.75H10.25C9.14543 13.75 8.25 14.6454 8.25 15.75V17.25C8.25 18.3546 9.14543 19.25 10.25 19.25H11.75C12.8546 19.25 13.75 20.1454 13.75 21.25V22.75C13.75 23.8546 14.6454 24.75 15.75 24.75H17.25C18.3546 24.75 19.25 23.8546 19.25 22.75V21.25C19.25 20.1454 20.1454 19.25 21.25 19.25H22.75C23.8546 19.25 24.75 18.3546 24.75 17.25V15.75C24.75 14.6454 23.8546 13.75 22.75 13.75H21.25C20.1454 13.75 19.25 12.8546 19.25 11.75V10.25Z" fill="white"/>
</svg>
